<?xml version="1.0" standalone="no"?>
<!DOCTYPE svg PUBLIC "-//W3C//DTD SVG 1.1//EN" "http://www.w3.org/Graphics/SVG/1.1/DTD/svg11.dtd"><svg t="1663835102757"
  class="icon" viewBox="0 0 1024 1024" version="1.1" xmlns="http://www.w3.org/2000/svg" p-id="986"
  xmlns:xlink="http://www.w3.org/1999/xlink" width="200" height="200">
  <path
    d="M960 21.333333c23.466667 0 42.666667 19.2 42.666667 42.666667 0 187.733333-72.533333 364.8-206.933334 499.2l-405.333333 405.333333c-8.533333 8.533333-19.2 12.8-29.866667 12.8-10.666667 0-21.333333-4.266667-29.866666-12.8L55.466667 695.466667c-17.066667-17.066667-17.066667-42.666667 0-59.733334l407.466666-407.466666C595.2 93.866667 772.266667 21.333333 960 21.333333zM736 501.333333c106.666667-106.666667 168.533333-245.333333 179.2-394.666666-149.333333 10.666667-288 72.533333-394.666667 179.2L256 552.533333l130.133333 130.133334c17.066667 17.066667 17.066667 42.666667 0 59.733333-8.533333 8.533333-19.2 12.8-29.866666 12.8-10.666667 0-21.333333-4.266667-29.866667-12.8l-130.133333-130.133333-51.2 51.2 213.333333 213.333333 377.6-375.466667z"
    p-id="987"></path>
</svg>